<?xml version="1.0" encoding="UTF-8"?>
<!DOCTYPE svg PUBLIC "-//W3C//DTD SVG 1.1//EN" "http://www.w3.org/Graphics/SVG/1.1/DTD/svg11.dtd">
<!-- Creator: CorelDRAW -->
<svg xmlns="http://www.w3.org/2000/svg" xml:space="preserve" width="153.989mm" height="70.2999mm" version="1.1" style="shape-rendering:geometricPrecision; text-rendering:geometricPrecision; image-rendering:optimizeQuality; fill-rule:evenodd; clip-rule:evenodd"
viewBox="0 0 14785.03 6749.73"
 xmlns:xlink="http://www.w3.org/1999/xlink"
 xmlns:xodm="http://www.corel.com/coreldraw/odm/2003">
 <defs>
  <style type="text/css">
   <![CDATA[
    .str0 {stroke:#606062;stroke-width:7.32;stroke-miterlimit:22.9256}
    .str1 {stroke:#F58634;stroke-width:7.32;stroke-miterlimit:22.9256}
    .fil0 {fill:none;fill-rule:nonzero}
    .fil2 {fill:#201E1E}
    .fil1 {fill:#606062;fill-rule:nonzero}
    .fil3 {fill:#F58634;fill-rule:nonzero}
   ]]>
  </style>
    <clipPath id="id0">
     <path d="M8479.48 3882.91l935.13 1.81 -2053.59 -3884.72 -468.68 876.53 1587.14 3006.38z"/>
    </clipPath>
    <clipPath id="id1">
     <path d="M5284.3 3883.91l917.91 -0.6 404.1 -771.62 -448.8 -860.87 -873.21 1633.09z"/>
    </clipPath>
    <clipPath id="id2">
     <path d="M6686.36 2933.78l1130.24 15.43 -178.53 -361.5 -757.83 -4.3 376.22 -679.88 -455.41 -856.27 -552.83 1033.89 438.14 852.63z"/>
    </clipPath>
 </defs>
 <g id="Camada_x0020_1">
  <metadata id="CorelCorpID_0Corel-Layer"/>
  <g id="_2421338511040">
   <g>
    <path class="fil0 str0" d="M507.76 5139.54l688.93 0 -345.92 -802.82 -343.02 802.82zm-504.61 699.66l766.83 -1813.06 161.59 0 775.54 1813.06 -211.43 0 -212.38 -487.75 -864.56 0 -207.06 487.75 -208.52 0zm2127.29 -1005.76l690.86 0c98.21,0 172.72,-25.23 223.03,-75.69 50.8,-49.9 75.96,-123.9 75.96,-221.45 0,-94.75 -25.16,-169.31 -75.96,-222.01 -50.31,-53.26 -121.43,-79.6 -213.35,-79.6l-700.54 0 0 598.75zm-194.49 1005.76l0 -1813.06 897.94 0c152.88,0 272.38,44.85 359.46,133.99 86.6,89.14 130.15,212.48 130.15,370.02 0,131.18 -33.86,243.31 -101.6,336.93 -68.22,93.62 -157.72,151.93 -268.99,174.92l390.92 797.21 -214.82 0 -391.4 -793.85 -607.16 0 0 793.85 -194.49 0zm1927.96 -1005.76l690.86 0c98.21,0 172.72,-25.23 223.04,-75.69 50.8,-49.9 75.96,-123.9 75.96,-221.45 0,-94.75 -25.16,-169.31 -75.96,-222.01 -50.32,-53.26 -121.44,-79.6 -213.36,-79.6l-700.54 0 0 598.75zm-194.48 1005.76l0 -1813.06 897.93 0c152.88,0 272.39,44.85 359.47,133.99 86.59,89.14 130.14,212.48 130.14,370.02 0,131.18 -33.86,243.31 -101.6,336.93 -68.21,93.62 -157.71,151.93 -268.99,174.92l390.92 797.21 -214.81 0 -391.4 -793.85 -607.17 0 0 793.85 -194.48 0zm1745.07 0l0 -1823.15 197.39 0 0 1823.15 -197.39 0zm1288.37 0l-121.92 0 -754.24 -1813.06 211.42 0 603.78 1453.13 603.79 -1453.13 215.29 0 -758.12 1813.06zm1097.26 -699.66l688.93 0 -345.92 -802.82 -343.02 802.82zm-504.6 699.66l766.83 -1813.06 161.58 0 775.54 1813.06 -211.42 0 -212.39 -487.75 -864.56 0 -207.06 487.75 -208.51 0zm2135.99 -1096.58l747.95 0c82.25,0 145.14,-21.87 188.21,-65.04 43.54,-43.17 65.31,-105.39 65.31,-186.69 0,-85.21 -20.8,-149.13 -62.89,-192.3 -42.09,-42.6 -105.47,-63.91 -190.63,-63.91l-747.95 0 0 507.93zm0 888.03l818.59 0c89.02,0 159.17,-30.27 210.45,-90.82 51.28,-61.11 76.93,-144.09 76.93,-248.92 0,-103.71 -25.65,-186.69 -76.93,-247.79 -51.28,-61.11 -121.43,-91.94 -210.45,-91.94l-818.59 0 0 679.48zm-194.49 208.55l0 -1813.06 925.51 0c153.86,0 270.45,38.12 349.31,114.36 78.87,76.24 118.54,188.37 118.54,337.5 0,72.33 -12.1,136.8 -36.77,193.98 -24.68,57.19 -59.51,103.16 -104.99,137.91 83.22,56.06 146.11,124.46 188.21,205.19 42.58,81.29 63.87,173.79 63.87,279.2 0,167.62 -47.41,299.93 -142.24,398.04 -95.31,98.11 -224,146.88 -386.56,146.88l-974.86 0zm1895.06 0l0 -1813.06 1230.8 0 0 208.55 -1036.31 0 0 531.47 627.01 0 0 208.55 -627.01 0 0 655.93 1100.16 0 0 208.55 -1294.64 0zm1584.45 0l0 -1813.06 102.07 0 1015.51 1355.03 0 -1355.03 194.48 0 0 1813.06 -99.17 0 -1018.4 -1355.03 0 1355.03 -194.48 0zm1781.84 0l0 -1823.15 197.39 0 0 1823.15 -197.39 0z"/>
    <path id="_1" class="fil1" d="M507.76 5139.54l688.93 0 -345.92 -802.82 -343.02 802.82zm-504.61 699.66l766.83 -1813.06 161.59 0 775.54 1813.06 -211.43 0 -212.38 -487.75 -864.56 0 -207.06 487.75 -208.52 0zm2127.29 -1005.76l690.86 0c98.21,0 172.72,-25.23 223.03,-75.69 50.8,-49.9 75.96,-123.9 75.96,-221.45 0,-94.75 -25.16,-169.31 -75.96,-222.01 -50.31,-53.26 -121.43,-79.6 -213.35,-79.6l-700.54 0 0 598.75zm-194.49 1005.76l0 -1813.06 897.94 0c152.88,0 272.38,44.85 359.46,133.99 86.6,89.14 130.15,212.48 130.15,370.02 0,131.18 -33.86,243.31 -101.6,336.93 -68.22,93.62 -157.72,151.93 -268.99,174.92l390.92 797.21 -214.82 0 -391.4 -793.85 -607.16 0 0 793.85 -194.49 0zm1927.96 -1005.76l690.86 0c98.21,0 172.72,-25.23 223.04,-75.69 50.8,-49.9 75.96,-123.9 75.96,-221.45 0,-94.75 -25.16,-169.31 -75.96,-222.01 -50.32,-53.26 -121.44,-79.6 -213.36,-79.6l-700.54 0 0 598.75zm-194.48 1005.76l0 -1813.06 897.93 0c152.88,0 272.39,44.85 359.47,133.99 86.59,89.14 130.14,212.48 130.14,370.02 0,131.18 -33.86,243.31 -101.6,336.93 -68.21,93.62 -157.71,151.93 -268.99,174.92l390.92 797.21 -214.81 0 -391.4 -793.85 -607.17 0 0 793.85 -194.48 0zm1745.07 0l0 -1823.15 197.39 0 0 1823.15 -197.39 0zm1288.37 0l-121.92 0 -754.24 -1813.06 211.42 0 603.78 1453.13 603.79 -1453.13 215.29 0 -758.12 1813.06zm1097.26 -699.66l688.93 0 -345.92 -802.82 -343.02 802.82zm-504.6 699.66l766.83 -1813.06 161.58 0 775.54 1813.06 -211.42 0 -212.39 -487.75 -864.56 0 -207.06 487.75 -208.51 0zm2135.99 -1096.58l747.95 0c82.25,0 145.14,-21.87 188.21,-65.04 43.54,-43.17 65.31,-105.39 65.31,-186.69 0,-85.21 -20.8,-149.13 -62.89,-192.3 -42.09,-42.6 -105.47,-63.91 -190.63,-63.91l-747.95 0 0 507.93zm0 888.03l818.59 0c89.02,0 159.17,-30.27 210.45,-90.82 51.28,-61.11 76.93,-144.09 76.93,-248.92 0,-103.71 -25.65,-186.69 -76.93,-247.79 -51.28,-61.11 -121.43,-91.94 -210.45,-91.94l-818.59 0 0 679.48zm-194.49 208.55l0 -1813.06 925.51 0c153.86,0 270.45,38.12 349.31,114.36 78.87,76.24 118.54,188.37 118.54,337.5 0,72.33 -12.1,136.8 -36.77,193.98 -24.68,57.19 -59.51,103.16 -104.99,137.91 83.22,56.06 146.11,124.46 188.21,205.19 42.58,81.29 63.87,173.79 63.87,279.2 0,167.62 -47.41,299.93 -142.24,398.04 -95.31,98.11 -224,146.88 -386.56,146.88l-974.86 0zm1895.06 0l0 -1813.06 1230.8 0 0 208.55 -1036.31 0 0 531.47 627.01 0 0 208.55 -627.01 0 0 655.93 1100.16 0 0 208.55 -1294.64 0zm1584.45 0l0 -1813.06 102.07 0 1015.51 1355.03 0 -1355.03 194.48 0 0 1813.06 -99.17 0 -1018.4 -1355.03 0 1355.03 -194.48 0zm1781.84 0l0 -1823.15 197.39 0 0 1823.15 -197.39 0z"/>
   </g>
   <path class="fil2" d="M6764.54 2943.39l1130.24 15.43 -178.53 -361.5 -757.83 -4.3 376.22 -679.88 -455.41 -856.27 -552.83 1033.89 438.14 852.63zm1793.12 949.13l935.13 1.81 -2053.59 -3884.72 -468.68 876.53 1587.14 3006.38zm-3195.18 1l917.91 -0.6 404.1 -771.62 -448.8 -860.87 -873.21 1633.09z"/>
   <g style="clip-path:url(#id0)">
    <image transform="matrix(6.08262E-15 -0.229667 0.216631 5.73739E-15 5018.22 4932.22)" x="0" y="0" width="30484.26" height="20627.68" xlink:href="logo_Images\logo_ImgID1.png"/>
   </g>
   <g style="clip-path:url(#id1)">
    <image transform="matrix(6.08262E-15 -0.229667 0.216631 5.73739E-15 5018.22 4932.22)" x="0" y="0" width="30484.26" height="20627.68" xlink:href="logo_Images\logo_ImgID2.png"/>
   </g>
   <g style="clip-path:url(#id2)">
    <image transform="matrix(6.08262E-15 -0.229667 0.216631 5.73739E-15 5018.22 4932.22)" x="0" y="0" width="30484.26" height="20627.68" xlink:href="logo_Images\logo_ImgID3.png"/>
   </g>
   <path class="fil3 str1" d="M51.64 6739.15l0 -559.38 409.58 0 0 59.25 -345.34 0 0 183.13 335.57 0 0 56.94 -335.57 0 0 201.59 345.34 0 0 58.48 -409.58 0zm785.63 0l0 -559.38 99.59 0 316.42 499.24 0 -499.24 64.25 0 0 559.38 -99.59 0 -316.42 -500.01 0 500.01 -64.25 0zm872.1 -374.59c0,-71.43 15.4,-121.19 46.33,-149.41 30.78,-28.21 85.52,-42.31 163.95,-42.31l74.16 0c71.88,0 125.02,11.67 159.15,35.13 34.13,23.48 51.13,60.02 51.13,109.65l0 23.72 -66.66 0 0 -6.8c0,-38.47 -10.17,-65.4 -30.65,-80.54 -20.35,-15.13 -59.3,-22.7 -116.85,-22.7l-51.4 0c-40.03,0 -68.81,2.18 -86.34,6.41 -17.54,4.23 -32.4,11.42 -44.7,21.42 -11.24,9.23 -19.28,21.55 -23.83,37.06 -4.55,15.52 -6.83,43.47 -6.83,83.73l0 159.41c0,40.01 2.28,67.83 6.83,83.35 4.55,15.52 12.59,27.83 23.83,37.06 12.3,10 26.89,17.19 43.9,21.42 17,4.23 46.04,6.41 87.14,6.41l51.4 0c37.07,0 63.45,-1.93 78.84,-5.65 15.39,-3.72 28.78,-10.13 40.02,-19.11 10.45,-8.59 17.81,-20.13 22.22,-34.88 4.29,-14.87 6.42,-40.14 6.42,-75.92l0 -34.5 -162.09 0 0 -56.94 228.75 0 0 93.74c0,71.69 -15.39,121.57 -46.31,149.66 -30.79,28.08 -85.54,42.06 -163.97,42.06l-74.16 0c-78.43,0 -133.17,-13.98 -163.95,-42.06 -30.93,-28.08 -46.33,-77.96 -46.33,-149.66l0 -189.79zm884.16 374.59l0 -559.38 409.58 0 0 59.25 -345.34 0 0 183.13 335.57 0 0 56.94 -335.57 0 0 201.59 345.34 0 0 58.48 -409.58 0zm785.64 0l0 -559.38 99.58 0 316.43 499.24 0 -499.24 64.24 0 0 559.38 -99.59 0 -316.42 -500.01 0 500.01 -64.24 0zm894.59 0l0 -559.38 64.24 0 0 241.61 336.51 0 0 -241.61 64.25 0 0 559.38 -64.25 0 0 -259.3 -336.51 0 0 259.3 -64.24 0zm959.51 -198.52l252.99 0 -116.59 -301.49 -20.75 0 -115.65 301.49zm-142.81 198.52l215.76 -559.38 106.28 0 216.84 559.38 -66.66 0 -55.68 -143.12 -295.4 0 -54.48 143.12 -66.65 0zm1140.34 -500.13l-186.33 0 0 223.9 186.33 0c48.58,0 80.44,-5.77 95.43,-17.31 15.12,-11.54 22.62,-32.19 22.62,-61.94l0 -65.4c0,-30.26 -7.22,-51.04 -21.81,-62.32 -14.46,-11.29 -46.58,-16.93 -96.23,-16.93zm-250.58 500.13l0 -559.38 263.55 0c65.6,0 110.7,9.36 135.47,27.96 24.76,18.59 37.08,51.81 37.08,99.64l0 84.51c0,29.36 -6.16,52.44 -18.62,69.12 -12.44,16.67 -31.31,27.06 -56.74,31.29 27.71,6.28 47.25,17.7 58.49,34.24 11.24,16.54 16.87,42.57 16.87,78.22l0 134.4 -67.47 0 0 -115.28c0,-40.02 -6.56,-67.07 -19.81,-81.31 -13.25,-14.1 -39.09,-21.15 -77.5,-21.15l-207.07 0 0 217.75 -64.24 0zm833.83 0l0 -559.38 65.05 0 0 559.38 -65.05 0zm559.57 -198.52l252.98 0 -116.59 -301.49 -20.75 0 -115.64 301.49zm-142.82 198.52l215.76 -559.38 106.28 0 216.84 559.38 -66.66 0 -55.68 -143.12 -295.4 0 -54.48 143.12 -66.65 0zm1432.4 0l0 -559.38 106.14 0 199.98 498.47 198.09 -498.47 106.95 0 0 559.38 -64.25 0 0 -507.19 -201.58 507.19 -79.51 0 -201.58 -507.19 0 507.19 -64.24 0zm1024.83 0l0 -559.38 409.58 0 0 59.25 -345.34 0 0 183.13 335.57 0 0 56.94 -335.57 0 0 201.59 345.34 0 0 58.48 -409.58 0zm767.17 -374.59c0,-71.69 14.32,-121.57 42.96,-149.66 28.65,-28.08 79.11,-42.06 151.65,-42.06l68.27 0c71.89,0 122.34,12.05 151.38,36.29 29.05,24.23 43.5,65.27 43.5,123.23l0 24.37 -66.65 0 0 -15.39c0,-42.32 -8.97,-71.17 -27.04,-86.69 -18.07,-15.52 -53.41,-23.34 -106.02,-23.34l-45.11 0c-35.21,0 -60.9,2.05 -77.09,6.15 -16.07,4.23 -29.46,11.16 -40.16,20.9 -10.71,9.5 -18.2,21.93 -22.61,37.32 -4.29,15.39 -6.42,43.47 -6.42,84.25l0 159.28c0,40.53 2.13,68.49 6.42,84 4.41,15.39 11.91,27.82 22.61,37.31 10.71,9.75 23.7,16.68 39.09,20.91 15.27,4.1 41.35,6.15 78.16,6.15l45.11 0c53.95,0 89.82,-8.08 107.62,-24.37 17.67,-16.28 26.63,-47.57 26.63,-93.61 0,-7.06 -0.12,-12.44 -0.27,-16.16 -0.13,-3.73 -0.26,-7.32 -0.53,-10.51l66.25 0 0 36.8c0,62.2 -14.06,105.54 -42.16,129.78 -28.11,24.36 -79.12,36.54 -152.73,36.54l-68.27 0c-72.55,0 -123,-14.1 -151.65,-42.19 -28.64,-28.08 -42.96,-77.97 -42.96,-149.66l0 -189.66zm920.41 176.07l252.99 0 -116.59 -301.49 -20.75 0 -115.65 301.49zm-142.81 198.52l215.76 -559.38 106.28 0 216.84 559.38 -66.66 0 -55.68 -143.12 -295.4 0 -54.48 143.12 -66.65 0zm160.61 -607.86l78.58 -130.8 59.7 0 78.57 130.8 -36.14 0 -72.29 -98.49 -72.27 98.49 -36.15 0zm729.15 607.86l0 -559.38 99.59 0 316.42 499.24 0 -499.24 64.25 0 0 559.38 -99.59 0 -316.42 -500.01 0 500.01 -64.25 0zm894.59 0l0 -559.38 65.05 0 0 559.38 -65.05 0zm460.12 -374.59c0,-71.69 14.32,-121.57 42.96,-149.66 28.65,-28.08 79.12,-42.06 151.65,-42.06l68.27 0c71.89,0 122.34,12.05 151.38,36.29 29.05,24.23 43.5,65.27 43.5,123.23l0 24.37 -66.65 0 0 -15.39c0,-42.32 -8.97,-71.17 -27.04,-86.69 -18.07,-15.52 -53.41,-23.34 -106.02,-23.34l-45.11 0c-35.2,0 -60.89,2.05 -77.09,6.15 -16.06,4.23 -29.46,11.16 -40.15,20.9 -10.72,9.5 -18.21,21.93 -22.62,37.32 -4.29,15.39 -6.42,43.47 -6.42,84.25l0 159.28c0,40.53 2.13,68.49 6.42,84 4.41,15.39 11.91,27.82 22.62,37.31 10.7,9.75 23.69,16.68 39.08,20.91 15.27,4.1 41.36,6.15 78.16,6.15l45.11 0c53.95,0 89.82,-8.08 107.62,-24.37 17.67,-16.28 26.63,-47.57 26.63,-93.61 0,-7.06 -0.12,-12.44 -0.27,-16.16 -0.12,-3.73 -0.26,-7.32 -0.53,-10.51l66.25 0 0 36.8c0,62.2 -14.05,105.54 -42.16,129.78 -28.11,24.36 -79.11,36.54 -152.73,36.54l-68.27 0c-72.54,0 -123,-14.1 -151.65,-42.19 -28.64,-28.08 -42.96,-77.97 -42.96,-149.66l0 -189.66zm906.37 176.07l252.99 0 -116.59 -301.49 -20.75 0 -115.65 301.49zm-142.81 198.52l215.76 -559.38 106.28 0 216.84 559.38 -66.66 0 -55.68 -143.12 -295.4 0 -54.48 143.12 -66.65 0z"/>
  </g>
 </g>
</svg>
