<?xml version="1.0" encoding="UTF-8"?>
<!DOCTYPE svg PUBLIC "-//W3C//DTD SVG 1.1//EN" "http://www.w3.org/Graphics/SVG/1.1/DTD/svg11.dtd">
<!-- Creator: CorelDRAW -->
<svg xmlns="http://www.w3.org/2000/svg" xml:space="preserve" width="192.033mm" height="34.1897mm" version="1.1" style="shape-rendering:geometricPrecision; text-rendering:geometricPrecision; image-rendering:optimizeQuality; fill-rule:evenodd; clip-rule:evenodd"
viewBox="0 0 15594.62 2776.47"
 xmlns:xlink="http://www.w3.org/1999/xlink"
 xmlns:xodm="http://www.corel.com/coreldraw/odm/2003">
 <defs>
  <style type="text/css">
   <![CDATA[
    .str0 {stroke:#606062;stroke-width:6.19;stroke-miterlimit:22.9256}
    .str1 {stroke:#F58634;stroke-width:6.19;stroke-miterlimit:22.9256}
    .fil0 {fill:none;fill-rule:nonzero}
    .fil2 {fill:#201E1E}
    .fil1 {fill:#606062;fill-rule:nonzero}
    .fil3 {fill:#F58634;fill-rule:nonzero}
   ]]>
  </style>
   <clipPath id="id0">
    <path d="M2278.01 2768.33l666.71 1.29 -1464.11 -2769.62 -334.15 624.92 1131.55 2143.41z"/>
   </clipPath>
   <clipPath id="id1">
    <path d="M-0 2769.04l654.42 -0.43 288.11 -550.13 -319.98 -613.75 -622.56 1164.32z"/>
   </clipPath>
   <clipPath id="id2">
    <path d="M999.6 2091.64l805.81 11 -127.28 -257.73 -540.3 -3.07 268.22 -484.72 -324.69 -610.48 -394.13 737.12 312.37 607.88z"/>
   </clipPath>
 </defs>
 <g id="Camada_x0020_1">
  <metadata id="CorelCorpID_0Corel-Layer"/>
  <g>
   <path class="fil0 str0" d="M3518.94 1406.25l582.7 0 -292.58 -679.02 -290.12 679.02zm-426.8 591.77l648.58 -1533.48 136.67 0 655.95 1533.48 -178.83 0 -179.63 -412.54 -731.24 0 -175.13 412.54 -176.37 0zm1799.26 -850.67l584.33 0c83.07,0 146.08,-21.34 188.64,-64.02 42.97,-42.2 64.24,-104.79 64.24,-187.3 0,-80.14 -21.28,-143.2 -64.24,-187.78 -42.55,-45.05 -102.7,-67.33 -180.45,-67.33l-592.52 0 0 506.42zm-164.5 850.67l0 -1533.48 759.47 0c129.31,0 230.38,37.93 304.03,113.33 73.25,75.39 110.08,179.71 110.08,312.96 0,110.95 -28.64,205.79 -85.93,284.97 -57.7,79.19 -133.4,128.5 -227.51,147.94l330.64 674.28 -181.69 0 -331.04 -671.44 -513.53 0 0 671.44 -164.5 0zm1630.66 -850.67l584.33 0c83.07,0 146.08,-21.34 188.65,-64.02 42.97,-42.2 64.24,-104.79 64.24,-187.3 0,-80.14 -21.28,-143.2 -64.24,-187.78 -42.56,-45.05 -102.71,-67.33 -180.46,-67.33l-592.52 0 0 506.42zm-164.49 850.67l0 -1533.48 759.46 0c129.31,0 230.39,37.93 304.04,113.33 73.24,75.39 110.07,179.71 110.07,312.96 0,110.95 -28.64,205.79 -85.93,284.97 -57.69,79.19 -133.39,128.5 -227.51,147.94l330.64 674.28 -181.69 0 -331.04 -671.44 -513.54 0 0 671.44 -164.49 0zm1475.98 0l0 -1542.02 166.96 0 0 1542.02 -166.96 0zm1089.7 0l-103.12 0 -637.94 -1533.48 178.82 0 510.68 1229.06 510.68 -1229.06 182.09 0 -641.22 1533.48zm928.06 -591.77l582.7 0 -292.58 -679.02 -290.12 679.02zm-426.79 591.77l648.58 -1533.48 136.66 0 655.95 1533.48 -178.82 0 -179.64 -412.54 -731.24 0 -175.13 412.54 -176.36 0zm1806.62 -927.48l632.62 0c69.56,0 122.76,-18.5 159.18,-55.01 36.83,-36.51 55.24,-89.14 55.24,-157.9 0,-72.07 -17.59,-126.13 -53.19,-162.64 -35.6,-36.03 -89.21,-54.05 -161.23,-54.05l-632.62 0 0 429.61zm0 751.09l692.36 0c75.3,0 134.63,-25.6 178,-76.81 43.37,-51.69 65.06,-121.87 65.06,-210.54 0,-87.72 -21.69,-157.9 -65.06,-209.58 -43.37,-51.69 -102.7,-77.76 -178,-77.76l-692.36 0 0 574.7zm-164.5 176.39l0 -1533.48 782.8 0c130.14,0 228.75,32.24 295.44,96.73 66.7,64.49 100.26,159.32 100.26,285.45 0,61.17 -10.23,115.71 -31.1,164.06 -20.87,48.37 -50.33,87.25 -88.8,116.65 70.39,47.42 123.58,105.27 159.18,173.55 36.02,68.76 54.02,146.99 54.02,236.14 0,141.77 -40.1,253.68 -120.31,336.66 -80.62,82.98 -189.46,124.23 -326.95,124.23l-824.54 0zm1602.84 0l0 -1533.48 1041 0 0 176.39 -876.51 0 0 449.52 530.32 0 0 176.39 -530.32 0 0 554.79 930.51 0 0 176.39 -1095.01 0zm1340.13 0l0 -1533.48 86.33 0 858.91 1146.08 0 -1146.08 164.49 0 0 1533.48 -83.88 0 -861.36 -1146.08 0 1146.08 -164.49 0zm1507.07 0l0 -1542.02 166.96 0 0 1542.02 -166.96 0z"/>
   <path id="_1" class="fil1" d="M3518.94 1406.25l582.7 0 -292.58 -679.02 -290.12 679.02zm-426.8 591.77l648.58 -1533.48 136.67 0 655.95 1533.48 -178.83 0 -179.63 -412.54 -731.24 0 -175.13 412.54 -176.37 0zm1799.26 -850.67l584.33 0c83.07,0 146.08,-21.34 188.64,-64.02 42.97,-42.2 64.24,-104.79 64.24,-187.3 0,-80.14 -21.28,-143.2 -64.24,-187.78 -42.55,-45.05 -102.7,-67.33 -180.45,-67.33l-592.52 0 0 506.42zm-164.5 850.67l0 -1533.48 759.47 0c129.31,0 230.38,37.93 304.03,113.33 73.25,75.39 110.08,179.71 110.08,312.96 0,110.95 -28.64,205.79 -85.93,284.97 -57.7,79.19 -133.4,128.5 -227.51,147.94l330.64 674.28 -181.69 0 -331.04 -671.44 -513.53 0 0 671.44 -164.5 0zm1630.66 -850.67l584.33 0c83.07,0 146.08,-21.34 188.65,-64.02 42.97,-42.2 64.24,-104.79 64.24,-187.3 0,-80.14 -21.28,-143.2 -64.24,-187.78 -42.56,-45.05 -102.71,-67.33 -180.46,-67.33l-592.52 0 0 506.42zm-164.49 850.67l0 -1533.48 759.46 0c129.31,0 230.39,37.93 304.04,113.33 73.24,75.39 110.07,179.71 110.07,312.96 0,110.95 -28.64,205.79 -85.93,284.97 -57.69,79.19 -133.39,128.5 -227.51,147.94l330.64 674.28 -181.69 0 -331.04 -671.44 -513.54 0 0 671.44 -164.49 0zm1475.98 0l0 -1542.02 166.96 0 0 1542.02 -166.96 0zm1089.7 0l-103.12 0 -637.94 -1533.48 178.82 0 510.68 1229.06 510.68 -1229.06 182.09 0 -641.22 1533.48zm928.06 -591.77l582.7 0 -292.58 -679.02 -290.12 679.02zm-426.79 591.77l648.58 -1533.48 136.66 0 655.95 1533.48 -178.82 0 -179.64 -412.54 -731.24 0 -175.13 412.54 -176.36 0zm1806.62 -927.48l632.62 0c69.56,0 122.76,-18.5 159.18,-55.01 36.83,-36.51 55.24,-89.14 55.24,-157.9 0,-72.07 -17.59,-126.13 -53.19,-162.64 -35.6,-36.03 -89.21,-54.05 -161.23,-54.05l-632.62 0 0 429.61zm0 751.09l692.36 0c75.3,0 134.63,-25.6 178,-76.81 43.37,-51.69 65.06,-121.87 65.06,-210.54 0,-87.72 -21.69,-157.9 -65.06,-209.58 -43.37,-51.69 -102.7,-77.76 -178,-77.76l-692.36 0 0 574.7zm-164.5 176.39l0 -1533.48 782.8 0c130.14,0 228.75,32.24 295.44,96.73 66.7,64.49 100.26,159.32 100.26,285.45 0,61.17 -10.23,115.71 -31.1,164.06 -20.87,48.37 -50.33,87.25 -88.8,116.65 70.39,47.42 123.58,105.27 159.18,173.55 36.02,68.76 54.02,146.99 54.02,236.14 0,141.77 -40.1,253.68 -120.31,336.66 -80.62,82.98 -189.46,124.23 -326.95,124.23l-824.54 0zm1602.84 0l0 -1533.48 1041 0 0 176.39 -876.51 0 0 449.52 530.32 0 0 176.39 -530.32 0 0 554.79 930.51 0 0 176.39 -1095.01 0zm1340.13 0l0 -1533.48 86.33 0 858.91 1146.08 0 -1146.08 164.49 0 0 1533.48 -83.88 0 -861.36 -1146.08 0 1146.08 -164.49 0zm1507.07 0l0 -1542.02 166.96 0 0 1542.02 -166.96 0z"/>
  </g>
  <path class="fil2" d="M1055.34 2098.49l805.81 11 -127.28 -257.74 -540.3 -3.06 268.22 -484.72 -324.69 -610.48 -394.13 737.12 312.37 607.88zm1278.41 676.69l666.71 1.29 -1464.11 -2769.62 -334.15 624.92 1131.55 2143.41zm-2278.01 0.71l654.42 -0.43 288.11 -550.13 -319.97 -613.76 -622.56 1164.32z"/>
  <g style="clip-path:url(#id0)">
   <image transform="matrix(5.12725E-15 -0.193594 0.182606 4.83625E-15 -189.705 3516.44)" x="0" y="0" width="25783.51" height="17446.84" xlink:href="logo horizontal_Images\logo horizontal_ImgID1.png"/>
  </g>
  <g style="clip-path:url(#id1)">
   <image transform="matrix(5.12725E-15 -0.193594 0.182606 4.83625E-15 -189.705 3516.44)" x="0" y="0" width="25783.51" height="17446.84" xlink:href="logo horizontal_Images\logo horizontal_ImgID2.png"/>
  </g>
  <g style="clip-path:url(#id2)">
   <image transform="matrix(5.12725E-15 -0.193594 0.182606 4.83625E-15 -189.705 3516.44)" x="0" y="0" width="25783.51" height="17446.84" xlink:href="logo horizontal_Images\logo horizontal_ImgID3.png"/>
  </g>
  <path class="fil3 str1" d="M3133.16 2759.2l0 -473.13 346.42 0 0 50.11 -292.09 0 0 154.89 283.82 0 0 48.16 -283.82 0 0 170.5 292.09 0 0 49.46 -346.42 0zm664.48 0l0 -473.13 84.23 0 267.63 422.26 0 -422.26 54.34 0 0 473.13 -84.23 0 -267.63 -422.91 0 422.91 -54.34 0zm737.62 -316.82c0,-60.42 13.03,-102.5 39.18,-126.37 26.04,-23.86 72.33,-35.79 138.67,-35.79l62.72 0c60.79,0 105.74,9.87 134.61,29.71 28.87,19.86 43.24,50.76 43.24,92.74l0 20.07 -56.38 0 0 -5.75c0,-32.54 -8.6,-55.32 -25.92,-68.12 -17.21,-12.8 -50.15,-19.2 -98.83,-19.2l-43.47 0c-33.86,0 -58.2,1.84 -73.02,5.42 -14.84,3.58 -27.41,9.66 -37.81,18.12 -9.51,7.8 -16.31,18.22 -20.16,31.35 -3.85,13.12 -5.77,36.77 -5.77,70.82l0 134.83c0,33.84 1.92,57.37 5.77,70.5 3.85,13.12 10.65,23.54 20.16,31.35 10.4,8.46 22.75,14.54 37.13,18.12 14.38,3.58 38.94,5.42 73.7,5.42l43.47 0c31.35,0 53.66,-1.63 66.68,-4.78 13.02,-3.14 24.34,-8.57 33.85,-16.16 8.84,-7.27 15.06,-17.03 18.79,-29.5 3.63,-12.58 5.43,-33.95 5.43,-64.21l0 -29.18 -137.1 0 0 -48.16 193.48 0 0 79.28c0,60.64 -13.02,102.83 -39.17,126.58 -26.04,23.75 -72.35,35.58 -138.69,35.58l-62.72 0c-66.34,0 -112.64,-11.82 -138.67,-35.58 -26.16,-23.75 -39.18,-65.94 -39.18,-126.58l0 -160.52zm747.82 316.82l0 -473.13 346.42 0 0 50.11 -292.09 0 0 154.89 283.82 0 0 48.16 -283.82 0 0 170.5 292.09 0 0 49.46 -346.42 0zm664.49 0l0 -473.13 84.22 0 267.64 422.26 0 -422.26 54.34 0 0 473.13 -84.23 0 -267.63 -422.91 0 422.91 -54.34 0zm756.64 0l0 -473.13 54.34 0 0 204.35 284.62 0 0 -204.35 54.34 0 0 473.13 -54.34 0 0 -219.32 -284.62 0 0 219.32 -54.34 0zm811.55 -167.91l213.97 0 -98.61 -255 -17.55 0 -97.81 255zm-120.79 167.91l182.49 -473.13 89.89 0 183.4 473.13 -56.38 0 -47.09 -121.05 -249.85 0 -46.08 121.05 -56.37 0zm964.5 -423.01l-157.6 0 0 189.38 157.6 0c41.09,0 68.04,-4.88 80.71,-14.64 12.79,-9.76 19.13,-27.23 19.13,-52.39l0 -55.32c0,-25.6 -6.11,-43.17 -18.45,-52.71 -12.23,-9.55 -39.39,-14.32 -81.39,-14.32zm-211.94 423.01l0 -473.13 222.91 0c55.48,0 93.63,7.92 114.58,23.65 20.94,15.72 31.36,43.82 31.36,84.28l0 71.48c0,24.83 -5.21,44.36 -15.75,58.46 -10.52,14.1 -26.48,22.88 -47.99,26.47 23.44,5.31 39.96,14.97 49.47,28.96 9.51,13.99 14.27,36.01 14.27,66.16l0 113.67 -57.06 0 0 -97.51c0,-33.85 -5.55,-56.73 -16.75,-68.77 -11.21,-11.93 -33.06,-17.89 -65.55,-17.89l-175.14 0 0 184.17 -54.34 0zm705.25 0l0 -473.13 55.02 0 0 473.13 -55.02 0zm473.28 -167.91l213.97 0 -98.61 -255 -17.55 0 -97.81 255zm-120.8 167.91l182.49 -473.13 89.89 0 183.4 473.13 -56.38 0 -47.09 -121.05 -249.85 0 -46.08 121.05 -56.37 0zm1211.52 0l0 -473.13 89.78 0 169.14 421.61 167.55 -421.61 90.46 0 0 473.13 -54.34 0 0 -428.98 -170.5 428.98 -67.25 0 -170.5 -428.98 0 428.98 -54.34 0zm866.8 0l0 -473.13 346.42 0 0 50.11 -292.09 0 0 154.89 283.82 0 0 48.16 -283.82 0 0 170.5 292.09 0 0 49.46 -346.42 0zm648.87 -316.82c0,-60.64 12.11,-102.83 36.33,-126.58 24.23,-23.75 66.91,-35.58 128.27,-35.58l57.74 0c60.8,0 103.48,10.19 128.04,30.7 24.57,20.5 36.8,55.21 36.8,104.23l0 20.61 -56.37 0 0 -13.02c0,-35.8 -7.58,-60.2 -22.87,-73.32 -15.28,-13.12 -45.18,-19.74 -89.67,-19.74l-38.15 0c-29.78,0 -51.51,1.74 -65.2,5.21 -13.59,3.58 -24.91,9.44 -33.97,17.68 -9.05,8.03 -15.4,18.55 -19.12,31.57 -3.63,13.02 -5.43,36.77 -5.43,71.26l0 134.72c0,34.28 1.8,57.93 5.43,71.05 3.73,13.02 10.07,23.53 19.12,31.56 9.05,8.25 20.04,14.11 33.06,17.69 12.91,3.47 34.98,5.21 66.11,5.21l38.15 0c45.63,0 75.97,-6.84 91.03,-20.61 14.94,-13.77 22.53,-40.24 22.53,-79.18 0,-5.97 -0.11,-10.52 -0.23,-13.67 -0.11,-3.15 -0.22,-6.19 -0.45,-8.89l56.03 0 0 31.13c0,52.61 -11.89,89.26 -35.66,109.77 -23.78,20.6 -66.92,30.91 -129.18,30.91l-57.74 0c-61.36,0 -104.04,-11.93 -128.27,-35.68 -24.22,-23.75 -36.33,-65.95 -36.33,-126.58l0 -160.42zm778.48 148.92l213.97 0 -98.61 -255 -17.55 0 -97.81 255zm-120.79 167.91l182.49 -473.13 89.89 0 183.4 473.13 -56.38 0 -47.09 -121.05 -249.85 0 -46.08 121.05 -56.37 0zm135.84 -514.13l66.46 -110.63 50.5 0 66.45 110.63 -30.57 0 -61.14 -83.3 -61.13 83.3 -30.57 0zm616.72 514.13l0 -473.13 84.23 0 267.63 422.26 0 -422.26 54.34 0 0 473.13 -84.23 0 -267.63 -422.91 0 422.91 -54.34 0zm756.64 0l0 -473.13 55.02 0 0 473.13 -55.02 0zm389.16 -316.82c0,-60.64 12.11,-102.83 36.33,-126.58 24.23,-23.75 66.92,-35.58 128.27,-35.58l57.74 0c60.8,0 103.48,10.19 128.04,30.7 24.57,20.5 36.8,55.21 36.8,104.23l0 20.61 -56.37 0 0 -13.02c0,-35.8 -7.58,-60.2 -22.87,-73.32 -15.28,-13.12 -45.18,-19.74 -89.67,-19.74l-38.15 0c-29.77,0 -51.5,1.74 -65.2,5.21 -13.59,3.58 -24.91,9.44 -33.96,17.68 -9.06,8.03 -15.41,18.55 -19.13,31.57 -3.63,13.02 -5.43,36.77 -5.43,71.26l0 134.72c0,34.28 1.8,57.93 5.43,71.05 3.73,13.02 10.07,23.53 19.13,31.56 9.05,8.25 20.03,14.11 33.05,17.69 12.91,3.47 34.98,5.21 66.11,5.21l38.15 0c45.63,0 75.97,-6.84 91.03,-20.61 14.94,-13.77 22.53,-40.24 22.53,-79.18 0,-5.97 -0.11,-10.52 -0.23,-13.67 -0.11,-3.15 -0.22,-6.19 -0.45,-8.89l56.03 0 0 31.13c0,52.61 -11.88,89.26 -35.66,109.77 -23.78,20.6 -66.91,30.91 -129.18,30.91l-57.74 0c-61.35,0 -104.04,-11.93 -128.27,-35.68 -24.22,-23.75 -36.33,-65.95 -36.33,-126.58l0 -160.42zm766.6 148.92l213.97 0 -98.61 -255 -17.55 0 -97.81 255zm-120.79 167.91l182.49 -473.13 89.89 0 183.4 473.13 -56.38 0 -47.09 -121.05 -249.85 0 -46.08 121.05 -56.37 0z"/>
 </g>
</svg>
