<?xml version="1.0" encoding="UTF-8"?>
<!DOCTYPE svg PUBLIC "-//W3C//DTD SVG 1.1//EN" "http://www.w3.org/Graphics/SVG/1.1/DTD/svg11.dtd">
<!-- Creator: CorelDRAW 2018 (64 Bit Versão de avaliação) -->
<svg xmlns="http://www.w3.org/2000/svg" xml:space="preserve" width="189.229mm" height="32.1142mm" version="1.1" style="shape-rendering:geometricPrecision; text-rendering:geometricPrecision; image-rendering:optimizeQuality; fill-rule:evenodd; clip-rule:evenodd"
viewBox="0 0 15510.37 2632.27"
 xmlns:xlink="http://www.w3.org/1999/xlink">
 <defs>
  <style type="text/css">
   <![CDATA[
    .str0 {stroke:#606062;stroke-width:6.25;stroke-miterlimit:22.9256}
    .str1 {stroke:#F58634;stroke-width:6.25;stroke-miterlimit:22.9256}
    .fil0 {fill:none;fill-rule:nonzero}
    .fil2 {fill:#201E1E}
    .fil1 {fill:#606062;fill-rule:nonzero}
    .fil3 {fill:#F58634;fill-rule:nonzero}
   ]]>
  </style>
   <clipPath id="id0">
    <path d="M2148.8 2611.3l628.88 1.21 -1381.06 -2612.51 -315.19 589.47 1067.37 2021.83z"/>
   </clipPath>
   <clipPath id="id1">
    <path d="M-0 2611.96l617.3 -0.4 271.76 -518.93 -301.82 -578.94 -587.25 1098.27z"/>
   </clipPath>
   <clipPath id="id2">
    <path d="M942.9 1973l760.1 10.38 -120.06 -243.12 -509.66 -2.89 253.01 -457.23 -306.27 -575.85 -371.78 695.31 294.65 573.4z"/>
   </clipPath>
 </defs>
 <g id="Camada_x0020_1">
  <metadata id="CorelCorpID_0Corel-Layer"/>
  <g>
   <path class="fil0 str0" d="M3321.96 1257.66l588.14 0 -295.31 -685.36 -292.83 685.36zm-430.78 597.29l654.64 -1547.8 137.95 0 662.07 1547.8 -180.5 0 -181.31 -416.39 -738.07 0 -176.77 416.39 -178.01 0zm1816.05 -858.61l589.79 0c83.84,0 147.45,-21.54 190.4,-64.61 43.37,-42.6 64.84,-105.77 64.84,-189.05 0,-80.88 -21.48,-144.54 -64.84,-189.53 -42.95,-45.47 -103.66,-67.96 -182.14,-67.96l-598.05 0 0 511.15zm-166.04 858.61l0 -1547.8 766.56 0c130.51,0 232.53,38.29 306.87,114.38 73.93,76.1 111.1,181.39 111.1,315.88 0,111.99 -28.91,207.71 -86.74,287.64 -58.24,79.93 -134.65,129.7 -229.64,149.33l333.72 680.57 -183.39 0 -334.13 -677.7 -518.33 0 0 677.7 -166.04 0zm1645.89 -858.61l589.79 0c83.84,0 147.45,-21.54 190.41,-64.61 43.37,-42.6 64.84,-105.77 64.84,-189.05 0,-80.88 -21.48,-144.54 -64.84,-189.53 -42.96,-45.47 -103.67,-67.96 -182.14,-67.96l-598.05 0 0 511.15zm-166.03 858.61l0 -1547.8 766.55 0c130.51,0 232.54,38.29 306.88,114.38 73.93,76.1 111.1,181.39 111.1,315.88 0,111.99 -28.91,207.71 -86.74,287.64 -58.23,79.93 -134.64,129.7 -229.64,149.33l333.72 680.57 -183.38 0 -334.13 -677.7 -518.34 0 0 677.7 -166.03 0zm1489.76 0l0 -1556.41 168.51 0 0 1556.41 -168.51 0zm1099.87 0l-104.08 0 -643.89 -1547.8 180.49 0 515.44 1240.53 515.45 -1240.53 183.79 0 -647.2 1547.8zm936.72 -597.29l588.14 0 -295.31 -685.36 -292.83 685.36zm-430.77 597.29l654.64 -1547.8 137.94 0 662.07 1547.8 -180.49 0 -181.32 -416.39 -738.07 0 -176.77 416.39 -178.01 0zm1823.48 -936.14l638.52 0c70.21,0 123.91,-18.67 160.67,-55.52 37.17,-36.85 55.75,-89.97 55.75,-159.37 0,-72.74 -17.75,-127.31 -53.69,-164.16 -35.93,-36.37 -90.04,-54.56 -162.74,-54.56l-638.52 0 0 433.62zm0 758.1l698.83 0c76,0 135.88,-25.84 179.66,-77.53 43.78,-52.17 65.67,-123.01 65.67,-212.51 0,-88.54 -21.89,-159.37 -65.67,-211.54 -43.78,-52.17 -103.66,-78.49 -179.66,-78.49l-698.83 0 0 580.07zm-166.04 178.04l0 -1547.8 790.1 0c131.35,0 230.88,32.54 298.2,97.63 67.33,65.09 101.2,160.81 101.2,288.12 0,61.74 -10.33,116.79 -31.39,165.6 -21.07,48.82 -50.8,88.06 -89.63,117.74 71.05,47.86 124.74,106.25 160.67,175.17 36.35,69.4 54.52,148.37 54.52,238.35 0,143.1 -40.47,256.05 -121.43,339.81 -81.37,83.75 -191.23,125.39 -330,125.39l-832.23 0zm1617.8 0l0 -1547.8 1050.72 0 0 178.04 -884.69 0 0 453.71 535.27 0 0 178.04 -535.27 0 0 559.97 939.2 0 0 178.04 -1105.23 0zm1352.64 0l0 -1547.8 87.14 0 866.93 1156.78 0 -1156.78 166.03 0 0 1547.8 -84.66 0 -869.41 -1156.78 0 1156.78 -166.03 0zm1521.14 0l0 -1556.41 168.51 0 0 1556.41 -168.51 0z"/>
   <path id="1" class="fil1" d="M3321.96 1257.66l588.14 0 -295.31 -685.36 -292.83 685.36zm-430.78 597.29l654.64 -1547.8 137.95 0 662.07 1547.8 -180.5 0 -181.31 -416.39 -738.07 0 -176.77 416.39 -178.01 0zm1816.05 -858.61l589.79 0c83.84,0 147.45,-21.54 190.4,-64.61 43.37,-42.6 64.84,-105.77 64.84,-189.05 0,-80.88 -21.48,-144.54 -64.84,-189.53 -42.95,-45.47 -103.66,-67.96 -182.14,-67.96l-598.05 0 0 511.15zm-166.04 858.61l0 -1547.8 766.56 0c130.51,0 232.53,38.29 306.87,114.38 73.93,76.1 111.1,181.39 111.1,315.88 0,111.99 -28.91,207.71 -86.74,287.64 -58.24,79.93 -134.65,129.7 -229.64,149.33l333.72 680.57 -183.39 0 -334.13 -677.7 -518.33 0 0 677.7 -166.04 0zm1645.89 -858.61l589.79 0c83.84,0 147.45,-21.54 190.41,-64.61 43.37,-42.6 64.84,-105.77 64.84,-189.05 0,-80.88 -21.48,-144.54 -64.84,-189.53 -42.96,-45.47 -103.67,-67.96 -182.14,-67.96l-598.05 0 0 511.15zm-166.03 858.61l0 -1547.8 766.55 0c130.51,0 232.54,38.29 306.88,114.38 73.93,76.1 111.1,181.39 111.1,315.88 0,111.99 -28.91,207.71 -86.74,287.64 -58.23,79.93 -134.64,129.7 -229.64,149.33l333.72 680.57 -183.38 0 -334.13 -677.7 -518.34 0 0 677.7 -166.03 0zm1489.76 0l0 -1556.41 168.51 0 0 1556.41 -168.51 0zm1099.87 0l-104.08 0 -643.89 -1547.8 180.49 0 515.44 1240.53 515.45 -1240.53 183.79 0 -647.2 1547.8zm936.72 -597.29l588.14 0 -295.31 -685.36 -292.83 685.36zm-430.77 597.29l654.64 -1547.8 137.94 0 662.07 1547.8 -180.49 0 -181.32 -416.39 -738.07 0 -176.77 416.39 -178.01 0zm1823.48 -936.14l638.52 0c70.21,0 123.91,-18.67 160.67,-55.52 37.17,-36.85 55.75,-89.97 55.75,-159.37 0,-72.74 -17.75,-127.31 -53.69,-164.16 -35.93,-36.37 -90.04,-54.56 -162.74,-54.56l-638.52 0 0 433.62zm0 758.1l698.83 0c76,0 135.88,-25.84 179.66,-77.53 43.78,-52.17 65.67,-123.01 65.67,-212.51 0,-88.54 -21.89,-159.37 -65.67,-211.54 -43.78,-52.17 -103.66,-78.49 -179.66,-78.49l-698.83 0 0 580.07zm-166.04 178.04l0 -1547.8 790.1 0c131.35,0 230.88,32.54 298.2,97.63 67.33,65.09 101.2,160.81 101.2,288.12 0,61.74 -10.33,116.79 -31.39,165.6 -21.07,48.82 -50.8,88.06 -89.63,117.74 71.05,47.86 124.74,106.25 160.67,175.17 36.35,69.4 54.52,148.37 54.52,238.35 0,143.1 -40.47,256.05 -121.43,339.81 -81.37,83.75 -191.23,125.39 -330,125.39l-832.23 0zm1617.8 0l0 -1547.8 1050.72 0 0 178.04 -884.69 0 0 453.71 535.27 0 0 178.04 -535.27 0 0 559.97 939.2 0 0 178.04 -1105.23 0zm1352.64 0l0 -1547.8 87.14 0 866.93 1156.78 0 -1156.78 166.03 0 0 1547.8 -84.66 0 -869.41 -1156.78 0 1156.78 -166.03 0zm1521.14 0l0 -1556.41 168.51 0 0 1556.41 -168.51 0z"/>
  </g>
  <path class="fil2" d="M995.48 1979.45l760.1 10.38 -120.06 -243.11 -509.66 -2.89 253.01 -457.22 -306.27 -575.85 -371.78 695.3 294.65 573.4zm1205.89 638.3l628.88 1.22 -1381.06 -2612.52 -315.19 589.47 1067.37 2021.82zm-2148.8 0.67l617.3 -0.41 271.77 -518.92 -301.82 -578.94 -587.25 1098.27z"/>
  <g style="clip-path:url(#id0)">
   <image transform="matrix(4.79168E-15 -0.180924 0.170655 4.51972E-15 -178.942 3316.97)" x="0" y="0" width="26024.2" height="17609.7" xlink:href="LEONAN LOGO ENGENHARIA HOR_Images\LEONAN LOGO ENGENHARIA HOR_ImgID1.png"/>
  </g>
  <g style="clip-path:url(#id1)">
   <image transform="matrix(4.79168E-15 -0.180924 0.170655 4.51972E-15 -178.942 3316.97)" x="0" y="0" width="26024.2" height="17609.7" xlink:href="LEONAN LOGO ENGENHARIA HOR_Images\LEONAN LOGO ENGENHARIA HOR_ImgID2.png"/>
  </g>
  <g style="clip-path:url(#id2)">
   <image transform="matrix(4.79168E-15 -0.180924 0.170655 4.51972E-15 -178.942 3316.97)" x="0" y="0" width="26024.2" height="17609.7" xlink:href="LEONAN LOGO ENGENHARIA HOR_Images\LEONAN LOGO ENGENHARIA HOR_ImgID3.png"/>
  </g>
  <path class="fil3 str1" d="M2932.57 2623.24l0 -477.54 349.66 0 0 50.58 -294.82 0 0 156.33 286.47 0 0 48.61 -286.47 0 0 172.1 294.82 0 0 49.93 -349.66 0zm670.69 0l0 -477.54 85.02 0 270.13 426.2 0 -426.2 54.85 0 0 477.54 -85.02 0 -270.13 -426.85 0 426.85 -54.85 0zm744.51 -319.78c0,-60.98 13.15,-103.46 39.55,-127.55 26.28,-24.08 73.01,-36.12 139.97,-36.12l63.31 0c61.36,0 106.73,9.96 135.87,29.99 29.14,20.04 43.65,51.24 43.65,93.61l0 20.25 -56.91 0 0 -5.8c0,-32.84 -8.68,-55.84 -26.16,-68.75 -17.37,-12.92 -50.62,-19.38 -99.75,-19.38l-43.88 0c-34.17,0 -58.75,1.86 -73.7,5.48 -14.98,3.61 -27.66,9.75 -38.16,18.29 -9.6,7.88 -16.46,18.39 -20.34,31.64 -3.89,13.25 -5.83,37.11 -5.83,71.48l0 136.09c0,34.16 1.94,57.91 5.83,71.15 3.89,13.25 10.75,23.76 20.34,31.64 10.5,8.54 22.96,14.67 37.47,18.29 14.52,3.61 39.3,5.48 74.39,5.48l43.88 0c31.65,0 54.16,-1.65 67.3,-4.82 13.14,-3.17 24.57,-8.65 34.16,-16.31 8.92,-7.34 15.2,-17.19 18.97,-29.78 3.66,-12.7 5.48,-34.27 5.48,-64.81l0 -29.45 -138.37 0 0 -48.61 195.28 0 0 80.02c0,61.2 -13.14,103.79 -39.53,127.76 -26.29,23.98 -73.02,35.91 -139.98,35.91l-63.31 0c-66.96,0 -113.69,-11.93 -139.97,-35.91 -26.4,-23.98 -39.55,-66.56 -39.55,-127.76l0 -162.02zm754.8 319.78l0 -477.54 349.66 0 0 50.58 -294.82 0 0 156.33 286.47 0 0 48.61 -286.47 0 0 172.1 294.82 0 0 49.93 -349.66 0zm670.69 0l0 -477.54 85.01 0 270.14 426.2 0 -426.2 54.84 0 0 477.54 -85.02 0 -270.13 -426.85 0 426.85 -54.84 0zm763.7 0l0 -477.54 54.84 0 0 206.26 287.27 0 0 -206.26 54.85 0 0 477.54 -54.85 0 0 -221.37 -287.27 0 0 221.37 -54.84 0zm819.13 -169.47l215.97 0 -99.53 -257.38 -17.71 0 -98.73 257.38zm-121.92 169.47l184.19 -477.54 90.73 0 185.11 477.54 -56.91 0 -47.53 -122.18 -252.18 0 -46.51 122.18 -56.9 0zm973.5 -426.96l-159.07 0 0 191.14 159.07 0c41.47,0 68.67,-4.93 81.47,-14.78 12.91,-9.85 19.31,-27.48 19.31,-52.88l0 -55.84c0,-25.84 -6.16,-43.57 -18.62,-53.2 -12.34,-9.64 -39.76,-14.45 -82.15,-14.45zm-213.91 426.96l0 -477.54 224.99 0c56,0 94.51,7.99 115.65,23.87 21.14,15.87 31.66,44.23 31.66,85.06l0 72.15c0,25.07 -5.26,44.77 -15.89,59.01 -10.62,14.23 -26.73,23.1 -48.44,26.71 23.66,5.36 40.34,15.11 49.93,29.23 9.6,14.12 14.4,36.34 14.4,66.78l0 114.74 -57.6 0 0 -98.42c0,-34.16 -5.6,-57.26 -16.91,-69.42 -11.31,-12.04 -33.37,-18.06 -66.16,-18.06l-176.78 0 0 185.89 -54.84 0zm711.83 0l0 -477.54 55.53 0 0 477.54 -55.53 0zm477.7 -169.47l215.96 0 -99.53 -257.38 -17.71 0 -98.72 257.38zm-121.92 169.47l184.19 -477.54 90.73 0 185.11 477.54 -56.91 0 -47.53 -122.18 -252.18 0 -46.51 122.18 -56.9 0zm1222.83 0l0 -477.54 90.61 0 170.72 425.54 169.11 -425.54 91.3 0 0 477.54 -54.85 0 0 -432.99 -172.09 432.99 -67.88 0 -172.09 -432.99 0 432.99 -54.84 0zm874.89 0l0 -477.54 349.66 0 0 50.58 -294.82 0 0 156.33 286.47 0 0 48.61 -286.47 0 0 172.1 294.82 0 0 49.93 -349.66 0zm654.92 -319.78c0,-61.2 12.22,-103.79 36.67,-127.76 24.46,-23.98 67.53,-35.91 129.47,-35.91l58.28 0c61.37,0 104.44,10.29 129.24,30.98 24.8,20.69 37.14,55.72 37.14,105.2l0 20.8 -56.9 0 0 -13.14c0,-36.13 -7.66,-60.76 -23.08,-74.01 -15.43,-13.25 -45.6,-19.93 -90.51,-19.93l-38.51 0c-30.06,0 -51.99,1.75 -65.81,5.25 -13.72,3.61 -25.15,9.52 -34.29,17.84 -9.14,8.11 -15.54,18.72 -19.3,31.86 -3.66,13.14 -5.48,37.11 -5.48,71.93l0 135.97c0,34.6 1.82,58.47 5.48,71.71 3.76,13.14 10.16,23.75 19.3,31.85 9.14,8.33 20.23,14.24 33.37,17.85 13.03,3.5 35.3,5.25 66.73,5.25l38.51 0c46.06,0 76.68,-6.9 91.88,-20.8 15.08,-13.9 22.74,-40.61 22.74,-79.92 0,-6.02 -0.11,-10.62 -0.23,-13.79 -0.11,-3.18 -0.22,-6.25 -0.45,-8.98l56.56 0 0 31.42c0,53.1 -12,90.1 -35.99,110.79 -24,20.79 -67.54,31.2 -130.38,31.2l-58.28 0c-61.93,0 -105.01,-12.04 -129.47,-36.02 -24.45,-23.98 -36.67,-66.56 -36.67,-127.76l0 -161.92zm785.75 150.31l215.97 0 -99.53 -257.38 -17.71 0 -98.73 257.38zm-121.92 169.47l184.19 -477.54 90.73 0 185.11 477.54 -56.91 0 -47.53 -122.18 -252.18 0 -46.51 122.18 -56.9 0zm137.11 -518.93l67.08 -111.66 50.97 0 67.07 111.66 -30.85 0 -61.71 -84.08 -61.7 84.08 -30.86 0zm622.47 518.93l0 -477.54 85.02 0 270.13 426.2 0 -426.2 54.85 0 0 477.54 -85.02 0 -270.13 -426.85 0 426.85 -54.85 0zm763.7 0l0 -477.54 55.53 0 0 477.54 -55.53 0zm392.8 -319.78c0,-61.2 12.22,-103.79 36.67,-127.76 24.46,-23.98 67.54,-35.91 129.47,-35.91l58.28 0c61.37,0 104.44,10.29 129.24,30.98 24.8,20.69 37.14,55.72 37.14,105.2l0 20.8 -56.9 0 0 -13.14c0,-36.13 -7.66,-60.76 -23.08,-74.01 -15.43,-13.25 -45.6,-19.93 -90.51,-19.93l-38.51 0c-30.05,0 -51.98,1.75 -65.81,5.25 -13.71,3.61 -25.15,9.52 -34.28,17.84 -9.15,8.11 -15.55,18.72 -19.31,31.86 -3.66,13.14 -5.48,37.11 -5.48,71.93l0 135.97c0,34.6 1.82,58.47 5.48,71.71 3.76,13.14 10.16,23.75 19.31,31.85 9.13,8.33 20.22,14.24 33.36,17.85 13.03,3.5 35.31,5.25 66.73,5.25l38.51 0c46.06,0 76.68,-6.9 91.88,-20.8 15.08,-13.9 22.74,-40.61 22.74,-79.92 0,-6.02 -0.11,-10.62 -0.23,-13.79 -0.11,-3.18 -0.22,-6.25 -0.45,-8.98l56.56 0 0 31.42c0,53.1 -11.99,90.1 -35.99,110.79 -24,20.79 -67.53,31.2 -130.38,31.2l-58.28 0c-61.93,0 -105.01,-12.04 -129.47,-36.02 -24.45,-23.98 -36.67,-66.56 -36.67,-127.76l0 -161.92zm773.76 150.31l215.97 0 -99.53 -257.38 -17.71 0 -98.73 257.38zm-121.92 169.47l184.19 -477.54 90.73 0 185.11 477.54 -56.91 0 -47.53 -122.18 -252.18 0 -46.51 122.18 -56.9 0z"/>
 </g>
</svg>
