<?xml version="1.0" standalone="no"?>
<!DOCTYPE svg PUBLIC "-//W3C//DTD SVG 20010904//EN"
 "http://www.w3.org/TR/2001/REC-SVG-20010904/DTD/svg10.dtd">
<svg version="1.0" xmlns="http://www.w3.org/2000/svg"
 width="518.000000pt" height="479.000000pt" viewBox="0 0 518.000000 479.000000"
 preserveAspectRatio="xMidYMid meet">

<g transform="translate(0.000000,479.000000) scale(0.100000,-0.100000)"
fill="#000000" stroke="none">
<path d="M2625 4740 c-8 -16 -15 -35 -15 -42 0 -7 135 -267 299 -578 384 -727
1108 -2097 1314 -2490 429 -816 485 -925 482 -929 -3 -2 -11 2 -20 9 -11 9
-15 9 -15 1 0 -8 -5 -9 -19 -1 -14 7 -22 7 -27 -1 -4 -8 -9 -7 -15 2 -8 11
-12 10 -24 -5 -12 -16 -19 -18 -40 -8 -14 7 -25 20 -25 31 0 29 -17 34 -24 8
l-7 -22 -11 25 c-10 24 -10 24 -18 5 -7 -19 -7 -19 -14 3 -13 39 -26 24 -27
-30 l-2 -53 -6 57 c-7 66 -16 81 -24 39 -5 -22 -11 -29 -22 -25 -10 4 -15 0
-15 -12 0 -9 -3 -14 -7 -10 -4 4 -8 57 -9 119 -1 62 -3 153 -5 202 l-2 90 -7
-100 c-4 -55 -8 -146 -9 -202 0 -57 -5 -103 -10 -103 -5 0 -13 26 -19 58 -6
39 -10 47 -11 25 -1 -26 -4 -30 -21 -26 -16 4 -20 0 -20 -18 0 -36 -19 -2 -21
36 -1 29 -1 30 -9 5 -4 -14 -9 -41 -10 -60 -2 -36 -4 -32 -15 31 -4 25 -12 38
-25 42 -18 5 -20 0 -21 -41 -2 -33 -3 -38 -6 -18 -3 16 -11 35 -19 43 -10 11
-14 44 -14 130 0 64 -2 114 -4 112 -3 -2 -10 -82 -17 -177 -12 -163 -13 -171
-25 -135 -8 21 -14 48 -14 61 0 12 -4 22 -10 22 -5 0 -10 -13 -10 -28 0 -16
-3 -32 -7 -35 -14 -15 -33 58 -33 129 0 40 -4 76 -10 79 -6 4 -11 -35 -12
-107 -2 -90 -3 -97 -5 -33 -1 44 -8 114 -15 155 l-13 75 -6 -55 c-4 -30 -8
-91 -9 -135 -1 -56 -4 -73 -10 -55 -7 21 -8 18 -10 -20 -1 -38 -3 -42 -11 -22
-5 13 -13 21 -18 17 -5 -3 -12 -1 -16 5 -9 15 -25 2 -25 -21 0 -10 -4 -19 -9
-19 -9 0 -21 57 -21 105 -1 58 -20 3 -21 -60 -1 -45 -3 -54 -9 -35 -4 14 -8
46 -9 73 -1 35 -5 47 -16 47 -9 0 -16 -10 -17 -27 -1 -16 -4 -1 -8 32 l-7 60
-2 -70 c-1 -38 -6 -90 -10 -115 l-8 -45 -2 41 c0 23 -4 57 -8 75 -7 33 -7 33
-14 9 -7 -24 -7 -24 -8 -2 -1 12 -7 22 -16 22 -10 0 -15 11 -16 33 -2 27 -2
28 -6 7 -7 -36 -23 -49 -24 -20 l-1 25 -8 -25 c-4 -14 -9 -43 -10 -65 -2 -38
-3 -39 -9 -10 -6 27 -7 28 -13 8 -4 -14 6 -45 29 -90 123 -238 357 -680 364
-688 9 -9 1228 -29 1237 -20 6 5 -2512 4765 -2520 4765 -4 0 -14 -13 -23 -30z
m1052 -4142 c-2 -13 -4 -3 -4 22 0 25 2 35 4 23 2 -13 2 -33 0 -45z m884 15
c-10 -17 -10 -16 -11 3 0 23 13 41 18 25 2 -6 -1 -18 -7 -28z m-581 7 c0 -5
-4 -10 -10 -10 -5 0 -10 5 -10 10 0 6 5 10 10 10 6 0 10 -4 10 -10z m437 -252
c-3 -7 -5 -2 -5 12 0 14 2 19 5 13 2 -7 2 -19 0 -25z"/>
<path d="M1937 3451 c-9 -16 -17 -34 -17 -40 0 -9 275 -535 477 -913 l25 -46
-231 -416 c-127 -228 -231 -418 -231 -421 0 -3 23 -5 51 -3 l51 3 229 413 229
413 -276 519 c-152 286 -280 520 -283 520 -4 0 -14 -13 -24 -29z"/>
<path d="M1143 1967 l-21 -44 57 -109 c73 -138 358 -687 405 -779 l35 -69 -42
-79 -42 -80 -6 69 -5 69 -2 -55 c-2 -37 -5 -50 -11 -41 -5 8 -8 23 -5 34 2 11
0 25 -4 31 -4 6 -9 -15 -12 -47 -3 -31 -9 -57 -14 -56 -5 0 -12 -5 -17 -12
-12 -19 -32 39 -25 73 3 15 3 35 -1 44 -10 27 -23 -5 -23 -58 0 -26 -4 -50
-10 -53 -6 -4 -10 12 -10 39 0 52 -19 64 -22 14 -1 -28 -2 -27 -8 12 -6 40 -7
35 -10 -40 l-4 -85 -5 75 -6 75 -9 -70 -10 -70 -7 43 c-5 23 -10 70 -13 105
-3 34 -6 71 -7 82 -3 37 -17 -37 -18 -100 -1 -33 -6 -78 -10 -100 l-9 -40 -1
45 c-2 42 -3 44 -16 26 -14 -18 -15 -14 -16 50 -1 50 -3 62 -9 44 -4 -14 -8
-44 -9 -66 -1 -27 -6 -44 -16 -48 -13 -4 -15 11 -17 97 l-2 102 -3 -90 c-4
-109 -9 -127 -27 -103 -7 10 -16 15 -19 11 -4 -3 -8 0 -8 8 -1 8 -7 -22 -14
-66 l-12 -80 -2 78 c0 44 -5 77 -11 77 -5 0 -10 -8 -11 -17 0 -11 -3 -13 -6
-5 -14 36 -23 1 -23 -94 0 -90 2 -105 15 -100 8 3 15 1 15 -4 0 -6 5 -10 10
-10 6 0 10 7 10 15 0 8 5 15 10 15 6 0 10 -9 10 -20 0 -11 4 -20 9 -20 5 0 12
-8 14 -17 4 -15 6 -14 12 5 13 39 24 5 27 -78 l2 -75 5 95 c6 95 23 126 29 53
5 -59 22 -65 23 -8 l1 50 13 -40 13 -40 2 40 c1 32 3 36 10 20 5 -11 9 -37 9
-57 1 -20 6 -40 11 -43 6 -3 10 -18 11 -33 l1 -27 10 30 c8 22 8 48 0 98 -8
41 -9 75 -3 84 8 14 9 14 14 -3 3 -10 5 -47 5 -80 0 -34 4 -72 8 -85 7 -19 10
-7 15 51 l5 75 2 -80 c1 -53 -3 -87 -11 -100 -8 -11 -58 -107 -113 -212 l-98
-193 -516 -3 -515 -2 565 -3 565 -2 244 466 c134 257 244 472 244 479 0 12
-528 1032 -542 1048 -4 4 -17 -13 -28 -36z m258 -1414 c-9 -15 -10 -13 -11 13
0 17 3 34 8 38 11 12 14 -32 3 -51z m-21 -13 c5 -9 2 -26 -6 -40 -13 -24 -13
-22 -13 30 0 30 3 48 6 40 3 -8 9 -22 13 -30z"/>
<path d="M2900 1595 c0 -3 45 -95 100 -205 55 -110 100 -205 100 -211 0 -10
-442 -8 -1055 7 -156 3 -236 2 -230 -4 10 -10 1385 -29 1385 -20 0 3 -47 103
-105 222 l-104 216 -46 0 c-25 0 -45 -2 -45 -5z"/>
<path d="M3478 1045 c-9 -41 -9 -148 1 -164 14 -22 16 0 11 99 -3 66 -7 86
-12 65z"/>
<path d="M4133 935 c0 -33 2 -45 4 -27 2 18 2 45 0 60 -2 15 -4 0 -4 -33z"/>
<path d="M887 895 c-4 -22 -7 -52 -7 -68 0 -20 -7 -30 -26 -38 -32 -11 -29
-14 -42 36 l-10 40 -2 -65 c-5 -144 -3 -190 8 -190 5 0 13 17 19 38 l10 37 2
-37 c0 -20 5 -40 11 -43 11 -7 19 21 23 90 2 28 4 11 5 -40 3 -103 10 -144 23
-123 5 7 9 30 9 50 0 28 3 36 14 32 8 -3 17 -18 19 -32 l4 -27 2 29 c1 21 5
27 16 22 10 -3 15 1 15 13 0 29 11 52 21 45 5 -3 9 2 9 11 0 9 -4 13 -10 10
-6 -4 -10 7 -10 27 0 22 -3 29 -9 20 -9 -16 -14 0 -27 83 -7 47 -8 48 -15 20
l-7 -30 -2 35 -3 35 -7 -40 -7 -40 -3 45 c-1 25 -5 56 -9 70 -7 23 -8 21 -14
-15z"/>
<path d="M757 803 c-6 -57 3 -203 13 -203 9 0 17 140 12 205 -5 58 -18 58 -25
-2z"/>
<path d="M516 818 c-9 -37 -7 -192 4 -208 7 -10 10 25 10 108 0 67 -2 122 -4
122 -2 0 -6 -10 -10 -22z"/>
<path d="M632 715 c0 -70 3 -103 8 -90 11 25 11 141 0 175 -5 16 -8 -15 -8
-85z"/>
<path d="M587 803 c-10 -18 -8 -161 2 -168 8 -4 11 23 11 84 0 85 -3 102 -13
84z"/>
<path d="M713 745 c0 -22 2 -30 4 -17 2 12 2 30 0 40 -3 9 -5 -1 -4 -23z"/>
<path d="M440 725 c0 -27 3 -46 6 -42 3 3 6 22 6 42 0 20 -3 39 -6 42 -3 4 -6
-15 -6 -42z"/>
<path d="M660 756 c0 -8 5 -18 10 -21 6 -3 10 3 10 14 0 12 -4 21 -10 21 -5 0
-10 -6 -10 -14z"/>
<path d="M400 717 c0 -26 4 -47 9 -47 8 0 3 79 -5 89 -2 2 -4 -17 -4 -42z"/>
<path d="M1002 740 c0 -14 2 -19 5 -12 2 6 2 18 0 25 -3 6 -5 1 -5 -13z"/>
<path d="M660 708 c0 -7 5 -20 10 -28 8 -12 10 -9 10 13 0 15 -4 27 -10 27 -5
0 -10 -6 -10 -12z"/>
<path d="M1163 190 c0 -30 2 -43 4 -27 2 15 2 39 0 55 -2 15 -4 2 -4 -28z"/>
</g>
</svg>
